<svg id="e3GOD5HQg9L1" xmlns="http://www.w3.org/2000/svg" xmlns:xlink="http://www.w3.org/1999/xlink" viewBox="0 0 500 500" shape-rendering="geometricPrecision" text-rendering="geometricPrecision" width="500" height="500">
<style><![CDATA[
#e3GOD5HQg9L3_to {animation: e3GOD5HQg9L3_to__to 10000ms linear infinite normal forwards}@keyframes e3GOD5HQg9L3_to__to { 0% {transform: translate(-289.746129px,494.676164px)} 2.5% {transform: translate(-29.77685px,234.706912px)} 3.5% {transform: translate(-11.865274px,216.795336px)} 4.5% {transform: translate(-29.77685px,234.706912px)} 18% {transform: translate(-58.805961px,263.736031px)} 32% {transform: translate(-29.159209px,234.089287px)} 45% {transform: translate(-48.923712px,253.853796px)} 60% {transform: translate(-23.600444px,228.53053px)} 77% {transform: translate(-57.570682px,262.500776px)} 79% {transform: translate(-47.688429px,252.618525px)} 80.6% {transform: translate(-296.597624px,501.527747px)} 100% {transform: translate(-296.597624px,501.527747px)}} #e3GOD5HQg9L4_to {animation: e3GOD5HQg9L4_to__to 10000ms linear infinite normal forwards}@keyframes e3GOD5HQg9L4_to__to { 0% {transform: translate(131.824267px,202.015743px)} 2% {transform: translate(-112.482875px,446.322897px)} 3% {transform: translate(-103.337687px,437.17771px)} 4% {transform: translate(-111.176417px,445.016443px)} 16% {transform: translate(-117.273208px,451.113238px)} 28% {transform: translate(-104.644138px,438.484173px)} 50% {transform: translate(-115.806068px,449.646105px)} 78.3% {transform: translate(-98.839931px,432.679984px)} 80.3% {transform: translate(-130.53981px,464.379868px)} 82.3% {transform: translate(-2.400846px,336.240912px)} 84.3% {transform: translate(156.545047px,177.295023px)} 100% {transform: translate(156.545047px,177.295023px)}} #e3GOD5HQg9L5_to {animation: e3GOD5HQg9L5_to__to 10000ms linear infinite normal forwards}@keyframes e3GOD5HQg9L5_to__to { 0% {transform: translate(-338.410765px,451.160772px)} 2% {transform: translate(-91.61px,204.36px)} 3% {transform: translate(-73.403386px,186.153386px)} 5% {transform: translate(-91.61px,204.36px)} 15% {transform: translate(-58.568364px,171.318369px)} 31% {transform: translate(-119.931395px,232.681405px)} 47% {transform: translate(-74.077694px,186.827712px)} 66% {transform: translate(-113.862515px,226.612534px)} 78% {transform: translate(-100.376131px,213.126159px)} 80% {transform: translate(-85.361775px,198.111812px)} 82% {transform: translate(-331.619058px,444.369133px)} 100% {transform: translate(-331.619058px,444.369133px)}} #e3GOD5HQg9L6_to {animation: e3GOD5HQg9L6_to__to 10000ms linear infinite normal forwards}@keyframes e3GOD5HQg9L6_to__to { 0% {transform: translate(164.993239px,-13.323233px)} 3.4% {transform: translate(-136.797936px,288.467948px)} 4.4% {transform: translate(-141.977697px,293.647709px)} 5.4% {transform: translate(-131.900826px,283.570843px)} 14% {transform: translate(-120.66081px,272.330828px)} 26% {transform: translate(-140.79917px,292.46919px)} 48% {transform: translate(-113.926049px,265.59607px)} 78.1% {transform: translate(-139.196654px,290.866694px)} 80.1% {transform: translate(-175.227366px,326.897407px)} 82.1% {transform: translate(-126.427408px,278.097439px)} 84.1% {transform: translate(169.140517px,-17.470484px)} 100% {transform: translate(169.140517px,-17.470484px)}} #e3GOD5HQg9L7_to {animation: e3GOD5HQg9L7_to__to 10000ms linear infinite normal forwards}@keyframes e3GOD5HQg9L7_to__to { 0% {transform: translate(246.858483px,26.921531px)} 2.3% {transform: translate(11.465872px,262.314165px)} 3.3% {transform: translate(-7.528346px,281.308382px)} 4.3% {transform: translate(11.465872px,262.314165px)} 16% {transform: translate(-11.598533px,285.378573px)} 30% {transform: translate(17.571156px,256.208884px)} 44% {transform: translate(-12.955262px,286.735305px)} 59% {transform: translate(17.571158px,256.208885px)} 77% {transform: translate(-11.598531px,285.378578px)} 79% {transform: translate(-25.844193px,299.624241px)} 81% {transform: translate(250.544551px,23.235501px)} 100% {transform: translate(250.544551px,23.235501px)}} #e3GOD5HQg9L8_to {animation: e3GOD5HQg9L8_to__to 10000ms linear infinite normal forwards}@keyframes e3GOD5HQg9L8_to__to { 0% {transform: translate(-430.325854px,567.705869px)} 2% {transform: translate(-196.568483px,333.948513px)} 3% {transform: translate(-181.563787px,318.943819px)} 4% {transform: translate(-196.568483px,333.948513px)} 13% {transform: translate(-161.031042px,298.411081px)} 29% {transform: translate(-185.512387px,322.892429px)} 46% {transform: translate(-131.021642px,268.4017px)} 65.8% {transform: translate(-161.820753px,299.200817px)} 77% {transform: translate(-134.970241px,272.350311px)} 79% {transform: translate(-117.596381px,254.976455px)} 81% {transform: translate(-308.708816px,446.088903px)} 83% {transform: translate(-439.012739px,576.392855px)} 100% {transform: translate(-439.012739px,576.392855px)}} #e3GOD5HQg9L9_to {animation: e3GOD5HQg9L9_to__to 10000ms linear infinite normal forwards}@keyframes e3GOD5HQg9L9_to__to { 0% {transform: translate(204.814179px,112.25582px)} 5% {transform: translate(-17.53148px,334.601487px)} 6% {transform: translate(-27.800457px,344.870466px)} 7% {transform: translate(-17.53148px,334.601487px)} 18% {transform: translate(-53.696135px,370.766149px)} 31% {transform: translate(-22.442728px,339.512746px)} 46% {transform: translate(-59.500339px,376.57036px)} 65% {transform: translate(-23.335685px,340.405708px)} 77.9% {transform: translate(-59.946816px,377.016846px)} 79.9% {transform: translate(60.155559px,256.914474px)} 81.9% {transform: translate(200.795886px,116.274153px)} 100% {transform: translate(200.795886px,116.274153px)}} #e3GOD5HQg9L10_to {animation: e3GOD5HQg9L10_to__to 10000ms linear infinite normal forwards}@keyframes e3GOD5HQg9L10_to__to { 0% {transform: translate(-382.94641px,423.620376px)} 2% {transform: translate(-124.989755px,165.663734px)} 3% {transform: translate(-110.143328px,150.817309px)} 4% {transform: translate(-124.989755px,165.663734px)} 14% {transform: translate(-154.064004px,194.737984px)} 27% {transform: translate(-95.296899px,135.970885px)} 41% {transform: translate(-129.319958px,169.993946px)} 54% {transform: translate(-95.296897px,135.970889px)} 69% {transform: translate(-144.166382px,184.840374px)} 78% {transform: translate(-115.09213px,155.766125px)} 80% {transform: translate(-97.152699px,137.826695px)} 82% {transform: translate(-314.281665px,354.955683px)} 84% {transform: translate(-384.183581px,424.857608px)} 100% {transform: translate(-384.183581px,424.857608px)}}
]]></style>
<g transform="translate(-56.999897 8.928083)"><g id="e3GOD5HQg9L3_to" transform="translate(-289.746129,494.676164)"><rect width="236.44" height="35.56" rx="17.78" ry="17.78" transform="rotate(-45) translate(128.41,82.89)" fill="#65b2e8"/></g><g id="e3GOD5HQg9L4_to" transform="translate(131.824267,202.015743)"><rect width="236.44" height="35.56" rx="17.78" ry="17.78" transform="rotate(-45) translate(337.95,277.55)" fill="#65b2e8"/></g><g id="e3GOD5HQg9L5_to" transform="translate(-338.410765,451.160772)"><rect width="236.44" height="35.56" rx="17.78" ry="17.78" transform="rotate(-45) translate(82.66,194.98)" fill="#00263e"/></g><g id="e3GOD5HQg9L6_to" transform="translate(164.993239,-13.323233)"><rect width="236.44" height="35.56" rx="17.78" ry="17.78" transform="rotate(-45) translate(191.46,363.69)" fill="#00263e"/></g><g id="e3GOD5HQg9L7_to" transform="translate(246.858483,26.921531)"><rect width="236.44" height="35.56" rx="17.78" ry="17.78" transform="rotate(-45) translate(217.1,130.8)" fill="#65b2e8"/></g><g id="e3GOD5HQg9L8_to" transform="translate(-430.325854,567.705869)"><rect width="236.44" height="35.56" rx="17.78" ry="17.78" transform="rotate(-45) translate(144.06,283.78)" fill="#65b2e8"/></g><g id="e3GOD5HQg9L9_to" transform="translate(204.814179,112.25582)"><rect width="236.44" height="35.56" rx="17.78" ry="17.78" transform="rotate(-45) translate(290.49,203.46)" fill="#1769a2"/></g><g id="e3GOD5HQg9L10_to" transform="translate(-382.94641,423.620376)"><rect width="236.44" height="35.56" rx="17.78" ry="17.78" transform="rotate(-45) translate(39.61,308.29)" fill="#d2ea8e"/></g><g><path d="M310.18,378.15v-.21c-.84.78-1.55.86-2.33,1.18C199.09,337.56,183.9,175.74,185.49,173.48c62.2-21,116.89-72.8,116.89-72.8s.78.61,2.15,1.76v.05c10.85,9.25,61.75,50.02,117.2,66.45c1.91,2.23-6.78,161.76-111.54,209.21Z" fill="#93d500"/><path d="M307.91,378.79c-.11-.04-.22-.08-.33-.13-108.3-41.77-123.72-203.02-121.92-205.27c61.1-20.51,114.56-70.71,116.62-72.65.01-.02.02-.03.04-.03.01-.02.02-.03.02-.03v.04c0,0,.43,22.09.43,22.09-.02-.01-.04-.04-.06-.05-1.17-.99-1.83-1.5-1.83-1.5s-46.59,44.12-99.59,62.01c-1.36,1.93,11.58,139.8,104.26,175.21.65-.28,1.26-.35,1.97-1.02v.19c0,0,.38,21.13.38,21.13Z" fill="#93d500"/><path d="M307.59,379.13v-.47c0,0-.38-20.85-.38-20.85.11-.05.22-.1.33-.15c89.25-40.43,96.65-176.35,95.03-178.25-47.23-14-90.59-48.73-99.84-56.62v-.04c0,0-.44-22.02-.44-22.02v-.07c0,0,.01.01.04.04q0,0,.03.02c2,1.75,57.72,50.01,119.45,68.19c1.6,2.08-7.29,164.28-114.21,210.21Z" fill="#7daa00"/><path d="M310.66,261.13v14.89c0,0-4.98.07-4.98.07v-.19c0,0-.74-41.46-.74-41.46s.03,0,.04,0c5.77-.1,10.84,3.43,13.04,8.61c2.88,6.9-.46,15.21-7.36,18.09Z" fill="#93d500"/><path d="M322.6,222.84l-17.96.42-.48-29.28c11.18-.3,20.25,8.55,20.55,19.73.03,2.98-.77,6.2-2.11,9.13Z" fill="#93d500"/><path d="M388.65,206.05c-6.84,36.56-27.09,108.62-81.26,140.34-.04.03-.07.06-.11.07-.1.06-.2.12-.3.18v-.35c0,0-1.19-58.98-1.19-58.98v-.08c0,0,40.65-.73,40.65-.73l-1.25-64.39-7.78.14c.93-2.82,1.15-6.14,1.15-9.32-.4-16.32-12.19-29.67-27.6-32.55-2.3-.43-4.68-.63-7.12-.56v-.14c0,0-.69-37.47-.69-37.47v-.06c0,0,.03.02.04.03.07.06.13.12.2.18c21.41,19.19,52.59,31.36,87.96,46.48-.45,3.86-1.29,9.81-2.67,17.22Z" fill="#7daa00"/><path d="M402.56,179.41c-47.23-14-90.59-48.73-99.84-56.62v-.04c-1.17-.99-1.83-1.5-1.83-1.5s-46.59,44.12-99.59,62.01c-1.36,1.93,11.58,139.8,104.26,175.21.65-.28,1.26-.35,1.97-1.02v.19c89.26-40.43,96.66-176.35,95.03-178.25ZM307.39,346.38v.13c0,0-.08-.05-.11-.06-.1.06-.2.12-.3.18v-.35c-66.54-35.53-86.57-131.49-90.06-154.14c34.78-16.66,65.76-29.87,86.22-49.95v-.06c0,0,.03.02.04.03.07-.06.13-.12.19-.18v.36c21.41,19.19,52.59,31.36,87.96,46.48-.45,3.86-1.29,9.81-2.67,17.22-6.84,36.56-27.09,108.62-81.26,140.34Z" fill="#fff"/><path d="M307.4,346.51c0,0-.08-.05-.12-.06-.1-.06-.21-.11-.31-.17-66.53-35.53-86.57-131.49-90.06-154.14c34.78-16.66,65.76-29.87,86.22-49.95.02,0,.03-.02.04-.03.07-.06.13-.12.19-.18v.36c0,0,.69,37.31.69,37.31-.08,0-.15.01-.23.02-3.13.21-6.15.8-9.2,1.6-17.89,5.39-28.03,24.55-22.63,42.44l-7.78.14l1.26,64.38l40.31-.92h.38c0,0,1.23,59.08,1.23,59.08v.13Z" fill="#93d500"/><path d="M305.72,275.9h-.04c0,0-5.1-.17-5.1-.17l-.22-14.74c-5.19-1.97-8.81-7.01-8.96-12.6-.17-7.57,5.99-13.97,13.57-14.14v.19c0,0,.74,41.46.74,41.46Z" fill="#93d500"/><path d="M346.43,286.49l-1.25-64.39-7.78.14c.93-2.82,1.15-6.14,1.15-9.32-.4-16.32-12.19-29.67-27.6-32.55-2.3-.43-4.68-.63-7.12-.56v-.14c-3.13.21-6.15.8-9.21,1.6-17.89,5.39-28.03,24.55-22.63,42.44l-7.78.14l1.26,64.38l40.31-.92v-.08c0,0,40.65-.73,40.65-.73Zm-62.01-71.98c.1-11.11,8.6-20.44,19.73-20.54c11.18-.3,20.25,8.55,20.55,19.73.03,2.98-.77,6.2-2.11,9.13l-17.96.42-17.95.42c-1.45-2.85-2.26-5.98-2.26-9.16Zm21.25,61.39l-5.1-.18-.22-14.74c-5.19-1.97-8.81-7.01-8.96-12.6-.17-7.57,5.99-13.97,13.57-14.14v.19c5.77-.1,10.85,3.43,13.05,8.61c2.88,6.9-.46,15.21-7.36,18.09v14.89c0,0-4.98.07-4.98.07v-.19Z" fill="#fff"/><path d="M304.64,223.25l-17.95.42c-1.45-2.85-2.26-5.98-2.26-9.16.1-11.11,8.6-20.44,19.73-20.54l.48,29.28Z" fill="#93d500"/></g></g></svg>
